<svg xmlns="http://www.w3.org/2000/svg" viewBox="0 0 32 32" fill="none">
  <defs>
    <linearGradient id="f" x1="0" y1="0" x2="1" y2="0">
      <stop offset="0%" stop-color="#2C8C8C"/>
      <stop offset="60%" stop-color="#35B095"/>
      <stop offset="100%" stop-color="#3ECFA5"/>
    </linearGradient>
  </defs>
  <rect width="32" height="32" rx="8" fill="#1A2A2A"/>
  <path d="M6,16 C6,9 12,6 16,11 C20,16 20,16 24,11 C28,6 34,9 34,16 C34,23 28,26 24,21 C20,16 20,16 16,21 C12,26 6,23 6,16Z" fill="none" stroke="url(#f)" stroke-width="2.2" stroke-linecap="round" transform="translate(-2,0) scale(0.88)" transform-origin="16 16"/>
  <path d="M9,16 C9,11.5 13.5,9.5 16,13.5 C18.5,17.5 19.5,17.5 22,13.5 C24.5,9.5 29,11.5 29,16 C29,20.5 24.5,22.5 22,18.5 C19.5,14.5 18.5,14.5 16,18.5 C13.5,22.5 9,20.5 9,16Z" fill="none" stroke="#3ECFA5" stroke-width="0.7" stroke-linecap="round" opacity="0.3" transform="translate(-2.5,0) scale(0.9)" transform-origin="16 16"/>
  <circle cx="16" cy="16" r="1.5" fill="#3ECFA5"/>
</svg>
