<svg xmlns="http://www.w3.org/2000/svg" viewBox="0 0 220 40" fill="none">
  <defs>
    <linearGradient id="flow-w" x1="0" y1="0" x2="1" y2="0">
      <stop offset="0%" stop-color="#5DDBB8"/>
      <stop offset="100%" stop-color="#3ECFA5"/>
    </linearGradient>
  </defs>
  <!-- Infinity flow mark — lighter teal for dark bg -->
  <path d="M8,20 C8,11 16,7 21,13 C26,19 26,19 31,13 C36,7 44,11 44,20 C44,29 36,33 31,27 C26,21 26,21 21,27 C16,33 8,29 8,20Z" fill="none" stroke="url(#flow-w)" stroke-width="2.8" stroke-linecap="round"/>
  <path d="M11,20 C11,14 17,11 21,16 C25,21 27,21 31,16 C35,11 41,14 41,20 C41,26 35,29 31,24 C27,19 25,19 21,24 C17,29 11,26 11,20Z" fill="none" stroke="#3ECFA5" stroke-width="0.8" stroke-linecap="round" opacity="0.25"/>
  <circle cx="26" cy="20" r="1.8" fill="#3ECFA5"/>
  <!-- Wordmark — white + mint -->
  <text x="54" y="26" style="font-family:'Share Tech Mono',monospace,Consolas,'Courier New';font-size:22px;letter-spacing:2px">
    <tspan fill="#FFFFFF">inter</tspan><tspan fill="#3ECFA5">flow</tspan>
  </text>
</svg>
